<mxfile host="app.diagrams.net" agent="Mozilla/5.0 (Macintosh; Intel Mac OS X 10_15_7) AppleWebKit/537.36 (KHTML, like Gecko) Chrome/139.0.0.0 Safari/537.36" version="28.2.0">
  <diagram name="Page-1" id="TwK_9DiYqaKGrZov8Vrv">
    <mxGraphModel dx="1606" dy="886" grid="1" gridSize="10" guides="1" tooltips="1" connect="1" arrows="1" fold="1" page="1" pageScale="1" pageWidth="850" pageHeight="1100" math="0" shadow="0">
      <root>
        <mxCell id="0" />
        <mxCell id="1" parent="0" />
        <mxCell id="t-k33MkrQhxEyoGOhnTc-24" value="" style="ellipse;shape=cloud;whiteSpace=wrap;html=1;" vertex="1" parent="1">
          <mxGeometry x="57" y="390" width="723" height="600" as="geometry" />
        </mxCell>
        <mxCell id="t-k33MkrQhxEyoGOhnTc-1" value="" style="outlineConnect=0;dashed=0;verticalLabelPosition=bottom;verticalAlign=top;align=center;html=1;shape=mxgraph.aws3.cloud_2;fillColor=#F58534;gradientColor=none;" vertex="1" parent="1">
          <mxGeometry x="40" y="34" width="140" height="136" as="geometry" />
        </mxCell>
        <mxCell id="t-k33MkrQhxEyoGOhnTc-37" value="" style="edgeStyle=none;curved=1;rounded=0;orthogonalLoop=1;jettySize=auto;html=1;fontSize=12;startSize=8;endSize=8;flowAnimation=1;" edge="1" parent="1" source="t-k33MkrQhxEyoGOhnTc-2" target="t-k33MkrQhxEyoGOhnTc-25">
          <mxGeometry relative="1" as="geometry" />
        </mxCell>
        <mxCell id="t-k33MkrQhxEyoGOhnTc-63" value="" style="edgeStyle=none;curved=1;rounded=0;orthogonalLoop=1;jettySize=auto;html=1;fontSize=12;startSize=8;endSize=8;flowAnimation=1;" edge="1" parent="1" source="t-k33MkrQhxEyoGOhnTc-2" target="t-k33MkrQhxEyoGOhnTc-25">
          <mxGeometry relative="1" as="geometry" />
        </mxCell>
        <mxCell id="t-k33MkrQhxEyoGOhnTc-2" value="&lt;span style=&quot;background-color: light-dark(#ffffff, var(--ge-dark-color, #121212));&quot;&gt;Funcionários&lt;/span&gt;&lt;div&gt;&lt;br&gt;&lt;/div&gt;" style="sketch=0;outlineConnect=0;fontColor=#232F3E;gradientColor=none;fillColor=#232F3D;strokeColor=none;dashed=0;verticalLabelPosition=bottom;verticalAlign=top;align=center;html=1;fontSize=12;fontStyle=0;aspect=fixed;pointerEvents=1;shape=mxgraph.aws4.users;" vertex="1" parent="1">
          <mxGeometry x="405.5" y="20" width="78" height="78" as="geometry" />
        </mxCell>
        <mxCell id="t-k33MkrQhxEyoGOhnTc-61" style="edgeStyle=none;curved=1;rounded=0;orthogonalLoop=1;jettySize=auto;html=1;fontSize=12;startSize=8;endSize=8;flowAnimation=1;" edge="1" parent="1" source="t-k33MkrQhxEyoGOhnTc-16" target="t-k33MkrQhxEyoGOhnTc-31">
          <mxGeometry relative="1" as="geometry">
            <Array as="points">
              <mxPoint x="400" y="590" />
            </Array>
          </mxGeometry>
        </mxCell>
        <mxCell id="t-k33MkrQhxEyoGOhnTc-16" value="S3 -&lt;div&gt;Backup de Prontuários&lt;/div&gt;" style="verticalLabelPosition=bottom;html=1;verticalAlign=top;strokeWidth=1;align=center;outlineConnect=0;dashed=0;outlineConnect=0;shape=mxgraph.aws3d.s3Bucket;fillColor=#4286c5;strokeColor=#57A2D8;aspect=fixed;strokeColor2=#292929;" vertex="1" parent="1">
          <mxGeometry x="450" y="650" width="61.5" height="63.800000000000004" as="geometry" />
        </mxCell>
        <mxCell id="t-k33MkrQhxEyoGOhnTc-36" value="" style="edgeStyle=none;curved=1;rounded=0;orthogonalLoop=1;jettySize=auto;html=1;fontSize=12;startSize=8;endSize=8;flowAnimation=1;" edge="1" parent="1" source="t-k33MkrQhxEyoGOhnTc-18" target="t-k33MkrQhxEyoGOhnTc-47">
          <mxGeometry relative="1" as="geometry">
            <Array as="points">
              <mxPoint x="510" y="820" />
            </Array>
          </mxGeometry>
        </mxCell>
        <mxCell id="t-k33MkrQhxEyoGOhnTc-18" value="IAM Role -&amp;nbsp;&lt;div&gt;Permissões EC2/RDS/S3&lt;/div&gt;" style="outlineConnect=0;dashed=0;verticalLabelPosition=bottom;verticalAlign=top;align=center;html=1;shape=mxgraph.aws3.iam;fillColor=#759C3E;gradientColor=none;" vertex="1" parent="1">
          <mxGeometry x="560" y="730" width="42" height="81" as="geometry" />
        </mxCell>
        <mxCell id="t-k33MkrQhxEyoGOhnTc-54" value="" style="edgeStyle=none;curved=1;rounded=0;orthogonalLoop=1;jettySize=auto;html=1;fontSize=12;startSize=8;endSize=8;flowAnimation=1;" edge="1" parent="1" source="t-k33MkrQhxEyoGOhnTc-25" target="t-k33MkrQhxEyoGOhnTc-53">
          <mxGeometry relative="1" as="geometry" />
        </mxCell>
        <mxCell id="t-k33MkrQhxEyoGOhnTc-25" value="enviar arquivo" style="image;points=[];aspect=fixed;html=1;align=center;shadow=0;dashed=0;image=img/lib/allied_telesis/computer_and_terminals/Personal_Computer.svg;" vertex="1" parent="1">
          <mxGeometry x="414.99" y="180" width="59.03" height="80" as="geometry" />
        </mxCell>
        <mxCell id="t-k33MkrQhxEyoGOhnTc-31" value="EC2 -&amp;nbsp;&lt;div&gt;Aplicação de Prontuário&amp;nbsp;&lt;div&gt;&lt;br&gt;&lt;/div&gt;&lt;/div&gt;" style="verticalLabelPosition=bottom;html=1;verticalAlign=top;strokeWidth=1;align=center;outlineConnect=0;dashed=0;outlineConnect=0;shape=mxgraph.aws3d.application_server;fillColor=#ECECEC;strokeColor=#5E5E5E;aspect=fixed;strokeColor2=#292929;" vertex="1" parent="1">
          <mxGeometry x="262.50000000000006" y="500.00000000000006" width="79.35" height="80" as="geometry" />
        </mxCell>
        <mxCell id="t-k33MkrQhxEyoGOhnTc-33" value="EBS -&amp;nbsp;&lt;div&gt;Logs/Arquivos&amp;nbsp;&lt;/div&gt;" style="outlineConnect=0;dashed=0;verticalLabelPosition=bottom;verticalAlign=top;align=center;html=1;shape=mxgraph.aws3.volume;fillColor=#E05243;gradientColor=none;" vertex="1" parent="1">
          <mxGeometry x="210.00000000000006" y="685" width="52.5" height="75" as="geometry" />
        </mxCell>
        <mxCell id="t-k33MkrQhxEyoGOhnTc-39" value="RDS-&amp;nbsp;&lt;div&gt;BD relacional&lt;/div&gt;" style="outlineConnect=0;dashed=0;verticalLabelPosition=bottom;verticalAlign=top;align=center;html=1;shape=mxgraph.aws3.rds;fillColor=#2E73B8;gradientColor=none;" vertex="1" parent="1">
          <mxGeometry x="560" y="560" width="72" height="81" as="geometry" />
        </mxCell>
        <mxCell id="t-k33MkrQhxEyoGOhnTc-48" style="edgeStyle=none;curved=1;rounded=0;orthogonalLoop=1;jettySize=auto;html=1;fontSize=12;startSize=8;endSize=8;flowAnimation=1;" edge="1" parent="1" source="t-k33MkrQhxEyoGOhnTc-47" target="t-k33MkrQhxEyoGOhnTc-33">
          <mxGeometry relative="1" as="geometry">
            <Array as="points">
              <mxPoint x="310" y="800" />
            </Array>
          </mxGeometry>
        </mxCell>
        <mxCell id="t-k33MkrQhxEyoGOhnTc-47" value="" style="image;aspect=fixed;perimeter=ellipsePerimeter;html=1;align=center;shadow=0;dashed=0;spacingTop=3;image=img/lib/active_directory/security.svg;" vertex="1" parent="1">
          <mxGeometry x="370" y="790" width="65.5" height="103.97" as="geometry" />
        </mxCell>
        <mxCell id="t-k33MkrQhxEyoGOhnTc-53" value="" style="outlineConnect=0;dashed=0;verticalLabelPosition=bottom;verticalAlign=top;align=center;html=1;shape=mxgraph.aws3.internet_gateway;fillColor=#F58534;gradientColor=none;" vertex="1" parent="1">
          <mxGeometry x="410" y="318" width="69" height="72" as="geometry" />
        </mxCell>
        <mxCell id="t-k33MkrQhxEyoGOhnTc-56" style="edgeStyle=none;curved=1;rounded=0;orthogonalLoop=1;jettySize=auto;html=1;entryX=0.54;entryY=0.13;entryDx=0;entryDy=0;entryPerimeter=0;fontSize=12;startSize=8;endSize=8;flowAnimation=1;" edge="1" parent="1" source="t-k33MkrQhxEyoGOhnTc-53" target="t-k33MkrQhxEyoGOhnTc-24">
          <mxGeometry relative="1" as="geometry" />
        </mxCell>
        <mxCell id="t-k33MkrQhxEyoGOhnTc-59" value="" style="endArrow=classic;startArrow=classic;html=1;rounded=0;fontSize=12;startSize=8;endSize=8;curved=1;flowAnimation=1;" edge="1" parent="1" source="t-k33MkrQhxEyoGOhnTc-39">
          <mxGeometry width="50" height="50" relative="1" as="geometry">
            <mxPoint x="416.75204983330354" y="712.0385615596333" as="sourcePoint" />
            <mxPoint x="341.84902016399224" y="539.9957057397294" as="targetPoint" />
            <Array as="points">
              <mxPoint x="460" y="530" />
            </Array>
          </mxGeometry>
        </mxCell>
        <mxCell id="t-k33MkrQhxEyoGOhnTc-60" value="" style="endArrow=classic;startArrow=classic;html=1;rounded=0;fontSize=12;startSize=8;endSize=8;curved=1;flowAnimation=1;" edge="1" parent="1" source="t-k33MkrQhxEyoGOhnTc-33" target="t-k33MkrQhxEyoGOhnTc-31">
          <mxGeometry width="50" height="50" relative="1" as="geometry">
            <mxPoint x="220" y="685" as="sourcePoint" />
            <mxPoint x="270" y="635" as="targetPoint" />
            <Array as="points">
              <mxPoint x="220" y="570" />
            </Array>
          </mxGeometry>
        </mxCell>
        <mxCell id="t-k33MkrQhxEyoGOhnTc-62" value="&lt;font face=&quot;Times New Roman&quot; style=&quot;font-size: 26px;&quot;&gt;Sistema de Prontuário&lt;/font&gt;" style="text;html=1;align=center;verticalAlign=middle;resizable=0;points=[];autosize=1;strokeColor=none;fillColor=none;fontSize=16;" vertex="1" parent="1">
          <mxGeometry x="525" y="29" width="250" height="40" as="geometry" />
        </mxCell>
      </root>
    </mxGraphModel>
  </diagram>
</mxfile>
